PathFileType	4	(X/Y/Z)	S:\OneDrive - The University of Tokyo\ìåëÂéˆã∆\ÉoÉCÉÅÉJ\ë™íË\hirabayashi_2\Trimmed\Trimmed_BarR1Hirabayashi1.trc
DataRate	CameraRate	NumFrames	NumMarkers	Units	OrigDataRate	OrigDataStartFrame	OrigNumFrames
200.00	200.00	       29	12	mm	200.00	187	       373
Frame#	Time	BarR0			BarR50			BarR100			BarR130			BarR180			BarR230			BarL0			BarL50			BarL100			BarL130			BarL180			BarL230			
		X1	Y1	Z1	X2	Y2	Z2	X3	Y3	Z3	X4	Y4	Z4	X5	Y5	Z5	X6	Y6	Z6	X7	Y7	Z7	X8	Y8	Z8	X9	Y9	Z9	X10	Y10	Z10	X11	Y11	Z11	X12	Y12	Z12	

187	0.930	-578.16412	2752.58618	1664.30444	-606.14673	2303.75415	1644.16479	-640.27209	1850.97253	1630.84485	-663.18842	1349.37280	1630.99609	-691.59058	903.54791	1644.43237	-715.05328	456.32227	1663.70569	-1114.25073	2808.04614	1664.46143	-1141.08240	2356.24243	1667.50354	-1171.44666	1905.90332	1668.36157	-1198.99585	1404.04614	1668.83997	-1226.84863	952.49310	1667.92383	-1244.88159	506.25275	1667.26367	
188	0.935	-578.15527	2752.57617	1664.31018	-606.15021	2303.75391	1644.13403	-640.29382	1850.96094	1630.84351	-663.21155	1349.36304	1630.99182	-691.62054	903.52197	1644.44336	-715.07709	456.32465	1663.71265	-1114.21838	2808.04004	1664.45361	-1141.06677	2356.21509	1667.49011	-1171.44482	1905.89795	1668.36133	-1199.01599	1404.03284	1668.82971	-1226.85828	952.47919	1667.91956	-1244.85022	506.21539	1667.24072	
189	0.940	-578.17572	2752.57568	1664.30505	-606.13373	2303.76245	1644.15625	-640.29956	1850.96643	1630.84375	-663.23126	1349.38123	1630.99500	-691.66302	903.55157	1644.43530	-715.09290	456.30267	1663.71338	-1114.27759	2808.04077	1664.46387	-1141.10071	2356.22217	1667.47546	-1171.43896	1905.84924	1668.35400	-1198.99109	1404.04773	1668.83301	-1226.84106	952.47473	1667.91394	-1244.86121	506.17023	1667.27197	
190	0.945	-578.18512	2752.57373	1664.31567	-606.14703	2303.76416	1644.15442	-640.31061	1850.95923	1630.83081	-663.22180	1349.35461	1630.98547	-691.65155	903.54425	1644.43494	-715.09375	456.34970	1663.70374	-1114.22998	2808.03052	1664.47278	-1141.10583	2356.17676	1667.47803	-1171.44482	1905.86145	1668.36023	-1199.03247	1403.98181	1668.83618	-1226.81226	952.47998	1667.90723	-1244.84814	506.19669	1667.25098	
191	0.950	-578.18451	2752.56543	1664.31311	-606.13989	2303.77759	1644.14502	-640.31018	1850.95801	1630.81763	-663.22986	1349.37439	1630.95642	-691.65857	903.57098	1644.40894	-715.09296	456.34644	1663.69739	-1114.22144	2808.00806	1664.47412	-1141.07947	2356.22290	1667.50269	-1171.44531	1905.86731	1668.34827	-1199.01172	1403.96045	1668.80615	-1226.83997	952.48822	1667.90063	-1244.82751	506.17294	1667.26685	
192	0.955	-578.18079	2752.58521	1664.32117	-606.14722	2303.76563	1644.10254	-640.29822	1850.96545	1630.81433	-663.22662	1349.38440	1630.94519	-691.65350	903.50354	1644.39697	-715.08734	456.33984	1663.71204	-1114.22949	2808.02881	1664.48462	-1141.11462	2356.19531	1667.47595	-1171.45386	1905.86682	1668.35107	-1199.00549	1404.00659	1668.84924	-1226.82617	952.48499	1667.88770	-1244.82715	506.16214	1667.25586	
193	0.960	-578.15643	2752.59082	1664.31323	-606.15143	2303.77637	1644.12805	-640.30615	1850.96545	1630.79700	-663.19879	1349.38342	1630.93213	-691.64063	903.54144	1644.39465	-715.07867	456.33292	1663.70447	-1114.30078	2808.03760	1664.46387	-1141.09070	2356.21191	1667.48584	-1171.42615	1905.83777	1668.34253	-1199.01123	1404.00476	1668.82971	-1226.83191	952.48633	1667.89783	-1244.81812	506.17444	1667.25183	
194	0.965	-578.15997	2752.57837	1664.31140	-606.13306	2303.76880	1644.10583	-640.29651	1850.95276	1630.79260	-663.19098	1349.40405	1630.89392	-691.60883	903.56677	1644.39319	-715.07611	456.32803	1663.71045	-1114.21692	2808.03809	1664.47144	-1141.10046	2356.19141	1667.48547	-1171.43567	1905.87561	1668.36340	-1199.00085	1404.00952	1668.81848	-1226.82129	952.50159	1667.91492	-1244.83984	506.19852	1667.25793	
195	0.970	-578.15265	2752.55737	1664.30444	-606.10809	2303.76758	1644.09607	-640.27905	1850.92700	1630.78406	-663.14899	1349.40076	1630.87451	-691.58179	903.55688	1644.38354	-715.05756	456.33731	1663.70349	-1114.19812	2808.04224	1664.45496	-1141.07202	2356.24072	1667.48694	-1171.43567	1905.90930	1668.35571	-1199.01819	1404.02075	1668.82129	-1226.82642	952.48047	1667.92175	-1244.84424	506.20282	1667.26160	
196	0.975	-578.15222	2752.60303	1664.30530	-606.10797	2303.80029	1644.09534	-640.26086	1850.95935	1630.77368	-663.10944	1349.39563	1630.86694	-691.56891	903.51147	1644.38147	-715.04224	456.37225	1663.70569	-1114.19324	2808.04639	1664.47253	-1141.08459	2356.23413	1667.50684	-1171.44165	1905.89819	1668.35791	-1198.99243	1404.06628	1668.84290	-1226.82690	952.52313	1667.91858	-1244.88232	506.24121	1667.25903	
197	0.980	-578.14441	2752.59790	1664.30872	-606.08856	2303.75366	1644.08521	-640.22137	1850.94971	1630.77393	-663.06036	1349.36877	1630.86951	-691.55609	903.58185	1644.36169	-715.02277	456.34259	1663.70105	-1114.23865	2808.09277	1664.47864	-1141.07825	2356.24414	1667.47266	-1171.45984	1905.92053	1668.36670	-1198.98987	1404.07825	1668.83911	-1226.84888	952.53430	1667.91602	-1244.86890	506.24756	1667.26733	
198	0.985	-578.13434	2752.59863	1664.33423	-606.09180	2303.77881	1644.08923	-640.20343	1850.94849	1630.77393	-663.03290	1349.38611	1630.86963	-691.50397	903.58203	1644.35657	-715.01074	456.35400	1663.71570	-1114.18481	2808.08643	1664.46838	-1141.08630	2356.23315	1667.50964	-1171.45447	1905.90015	1668.36609	-1199.02991	1404.03467	1668.82471	-1226.83887	952.52594	1667.91980	-1244.89270	506.24292	1667.26282	
199	0.990	-578.11206	2752.59204	1664.31604	-606.08362	2303.79590	1644.10889	-640.20172	1850.95508	1630.78174	-663.01654	1349.38013	1630.85583	-691.49023	903.55414	1644.37024	-715.00726	456.34448	1663.71497	-1114.23669	2808.07959	1664.47437	-1141.10706	2356.23145	1667.50171	-1171.47339	1905.92188	1668.36414	-1199.05444	1403.99536	1668.82300	-1226.84937	952.53778	1667.91797	-1244.89844	506.25385	1667.26819	
200	0.995	-578.12964	2752.60718	1664.31152	-606.06885	2303.78198	1644.10327	-640.19800	1850.96814	1630.78625	-663.01282	1349.40881	1630.86951	-691.49817	903.60742	1644.38013	-715.01068	456.36475	1663.71533	-1114.24939	2808.08472	1664.48096	-1141.12683	2356.24072	1667.49048	-1171.47839	1905.90906	1668.36023	-1199.00842	1404.08582	1668.85596	-1226.86389	952.51208	1667.91541	-1244.89417	506.21841	1667.26660	
201	1.000	-578.10333	2752.61597	1664.32788	-606.04858	2303.78564	1644.10767	-640.18512	1850.96924	1630.79822	-663.00195	1349.38647	1630.88489	-691.50330	903.58099	1644.36853	-715.01074	456.35452	1663.71680	-1114.24438	2808.07813	1664.47839	-1141.12573	2356.23804	1667.47485	-1171.49976	1905.88220	1668.35254	-1199.05884	1403.99817	1668.82495	-1226.85498	952.53070	1667.92224	-1244.90356	506.21753	1667.26465	
202	1.005	-578.09845	2752.61963	1664.31982	-606.04919	2303.78491	1644.11035	-640.20789	1850.97998	1630.79932	-662.99963	1349.38892	1630.89734	-691.50305	903.61847	1644.38928	-715.03137	456.37399	1663.70813	-1114.25574	2808.05737	1664.47803	-1141.14355	2356.20508	1667.48254	-1171.47681	1905.89600	1668.35620	-1199.04895	1403.97266	1668.84570	-1226.86890	952.48987	1667.90308	-1244.87244	506.19101	1667.25989	
203	1.010	-578.09979	2752.59985	1664.32312	-606.07422	2303.77051	1644.13367	-640.18890	1850.96375	1630.80811	-663.03583	1349.38403	1630.92090	-691.49597	903.57739	1644.39673	-715.03131	456.33896	1663.71594	-1114.23633	2808.00952	1664.47803	-1141.11853	2356.23413	1667.47461	-1171.46741	1905.88513	1668.35876	-1199.05945	1403.99829	1668.83008	-1226.84448	952.51215	1667.91199	-1244.87402	506.20337	1667.27563	
204	1.015	-578.11047	2752.59863	1664.31934	-606.08380	2303.77979	1644.14795	-640.21295	1850.95508	1630.81323	-663.05762	1349.37634	1630.93787	-691.54218	903.53729	1644.40588	-715.04205	456.33841	1663.70557	-1114.24500	2808.02393	1664.45654	-1141.12085	2356.18994	1667.47119	-1171.48010	1905.88745	1668.35315	-1199.04138	1403.99609	1668.81689	-1226.84607	952.50909	1667.91504	-1244.88757	506.19928	1667.25977	
205	1.020	-578.16376	2752.56494	1664.30176	-606.10712	2303.76929	1644.14136	-640.23657	1850.96130	1630.84155	-663.08008	1349.36951	1630.95947	-691.63306	903.45184	1644.22278	-715.04492	456.32739	1663.71619	-1114.27417	2808.03540	1664.46094	-1141.09741	2356.21826	1667.47571	-1171.45984	1905.89575	1668.35938	-1199.00781	1404.02039	1668.83618	-1226.82434	952.48895	1667.92065	-1244.84863	506.18362	1667.25781	
206	1.025	-578.15643	2752.56934	1664.31787	-606.10370	2303.75391	1644.15283	-640.23962	1850.94397	1630.83240	-663.08398	1349.36462	1630.97937	-691.56732	903.53467	1644.42932	-715.05188	456.32080	1663.70056	-1114.21338	2808.04346	1664.47302	-1141.05652	2356.22900	1667.45801	-1171.43481	1905.88025	1668.36438	-1198.98364	1404.04309	1668.85168	-1226.82214	952.50952	1667.91724	-1244.86267	506.20938	1667.26343	
207	1.030	-578.17242	2752.55127	1664.31531	-606.11426	2303.73755	1644.16968	-640.22089	1850.93103	1630.85950	-663.11035	1349.33972	1631.01599	-691.54413	903.54529	1644.43347	-715.06207	456.31042	1663.71362	-1114.19385	2808.02954	1664.46753	-1141.05811	2356.19727	1667.46362	-1171.46448	1905.87805	1668.36206	-1198.95923	1404.03650	1668.84241	-1226.81506	952.47937	1667.92126	-1244.85400	506.21777	1667.26746	
208	1.035	-578.14789	2752.54834	1664.31995	-606.10553	2303.74316	1644.19495	-640.22229	1850.91992	1630.86755	-663.10590	1349.33728	1631.03149	-691.55682	903.52661	1644.44800	-715.06079	456.29514	1663.70837	-1114.22485	2808.04761	1664.46826	-1141.04785	2356.22363	1667.48230	-1171.42700	1905.90442	1668.34583	-1198.97131	1404.05127	1668.84302	-1226.83008	952.49146	1667.91101	-1244.84229	506.20251	1667.25720	
209	1.040	-578.14380	2752.55493	1664.30176	-606.11731	2303.71606	1644.19165	-640.21466	1850.92749	1630.87598	-663.11414	1349.35474	1631.04675	-691.65527	903.42615	1644.25916	-715.06030	456.29056	1663.71179	-1114.22583	2808.04370	1664.46057	-1141.08215	2356.21021	1667.47473	-1171.42554	1905.88281	1668.35278	-1198.96985	1404.04089	1668.84485	-1226.83484	952.49670	1667.91626	-1244.85083	506.22330	1667.25854	
210	1.045	-578.16095	2752.56836	1664.30908	-606.11066	2303.73975	1644.19458	-640.19904	1850.92786	1630.88586	-663.07910	1349.32532	1631.04797	-691.56537	903.50598	1644.46875	-715.05255	456.27460	1663.71863	-1114.19177	2808.05151	1664.47351	-1141.10254	2356.21143	1667.48975	-1171.43628	1905.90686	1668.34949	-1199.03015	1403.98865	1668.83118	-1226.81946	952.53284	1667.91614	-1244.85046	506.20139	1667.26294	
211	1.050	-578.12189	2752.58350	1664.30298	-606.07367	2303.73462	1644.20715	-640.19342	1850.95398	1630.89954	-663.06989	1349.33875	1631.05884	-691.53302	903.51227	1644.47339	-715.03802	456.32895	1663.71069	-1114.22107	2808.03247	1664.48328	-1141.10693	2356.20630	1667.49353	-1171.45361	1905.88196	1668.36316	-1199.01172	1403.99670	1668.83923	-1226.83667	952.50739	1667.91248	-1244.85291	506.19107	1667.25977	
212	1.055	-578.10394	2752.62134	1664.32080	-606.05975	2303.76099	1644.20337	-640.20331	1850.95349	1630.88599	-663.02881	1349.35754	1631.04248	-691.51471	903.50006	1644.46863	-715.03314	456.29642	1663.72534	-1114.25232	2808.02734	1664.46289	-1141.11304	2356.21582	1667.48767	-1171.46558	1905.87610	1668.35779	-1199.04785	1403.99707	1668.82605	-1226.84973	952.52234	1667.90308	-1244.86133	506.21457	1667.25989	
213	1.060	-578.08551	2752.61377	1664.30945	-606.04944	2303.76514	1644.19739	-640.15100	1850.94727	1630.89087	-662.98602	1349.36670	1631.03040	-691.55389	903.48279	1644.26672	-715.02228	456.33289	1663.71338	-1114.21399	2808.03467	1664.47058	-1141.11230	2356.21606	1667.47412	-1171.47400	1905.88416	1668.36487	-1199.00891	1404.01453	1668.83752	-1226.84119	952.50372	1667.91846	-1244.88635	506.20667	1667.25928	
214	1.065	-578.09442	2752.61035	1664.30896	-606.04633	2303.76318	1644.17236	-640.14484	1850.94019	1630.86157	-662.93549	1349.35400	1631.01489	-691.56006	903.48505	1644.25891	-715.00751	456.33755	1663.70789	-1114.25293	2808.04883	1664.45837	-1141.13647	2356.19092	1667.48035	-1171.48938	1905.89014	1668.35010	-1199.02271	1404.02454	1668.83691	-1226.86096	952.48438	1667.93188	-1244.88281	506.20239	1667.25525	
215	1.070	-578.09662	2752.59131	1664.32190	-606.03284	2303.76025	1644.16089	-640.12372	1850.91919	1630.84583	-662.90002	1349.34351	1630.98853	-691.44659	903.56152	1644.43481	-714.98376	456.33987	1663.71655	-1114.22144	2808.06274	1664.45654	-1141.12903	2356.23999	1667.49207	-1171.48267	1905.90125	1668.35461	-1199.05908	1403.98523	1668.83630	-1226.87012	952.50244	1667.92725	-1244.85803	506.19406	1667.26001	
